<?xml version="1.0" encoding="UTF-8"?>
<svg xmlns="http://www.w3.org/2000/svg" width="140mm" height="32mm" version="1.1" viewBox="0 0 396.85 90.709">
  <!-- Generator: Adobe Illustrator 29.5.1, SVG Export Plug-In . SVG Version: 2.1.0 Build 141)  -->
  <g id="Schutzraum">
    <rect y="0" width="396.85" height="90.709" fill="none"/>
    <rect y="0" width="396.85" height="90.709" fill="none"/>
    <rect y="0" width="396.85" height="90.709" fill="none"/>
    <rect y="0" width="396.85" height="90.709" fill="none"/>
    <rect y="0" width="396.85" height="90.709" fill="none"/>
  </g>
  <g id="Logo">
    <g>
      <path d="M322.033,67.852h4.345v-9.113h2.323c1.75,0,2.505,1.026,2.566,2.716l.12,4.134c.03.844.121,1.659.543,2.263h4.707v-.181c-.814-.423-.935-1.599-.965-3.862-.06-4.557-.513-6.187-3.47-6.579v-.06c2.444-.513,3.591-2.444,3.591-5.311,0-3.682-2.173-5.553-5.734-5.553h-8.026v21.546ZM326.378,49.505h2.052c1.961,0,3.018.996,3.018,2.988,0,2.323-1.178,3.228-3.26,3.228h-1.81v-6.216Z" fill="#8ebae5"/>
      <path d="M257.97,46.307v15.027c0,5.764,3.349,6.941,6.88,6.941s6.88-1.448,6.88-6.941v-15.027h-4.345v15.027c0,2.143-.513,3.742-2.535,3.742s-2.535-1.599-2.535-3.742v-15.027h-4.345Z" fill="#8ebae5"/>
    </g>
    <polygon points="272.794 46.307 272.794 67.852 276.777 67.852 276.777 52.765 276.837 52.765 282.148 67.852 287.097 67.852 287.097 46.307 283.114 46.307 283.114 61.063 283.054 61.063 277.803 46.307 272.794 46.307" fill="#8ebae5"/>
    <rect x="288.214" y="46.307" width="4.345" height="21.545" fill="#8ebae5"/>
    <polygon points="292.857 46.307 297.805 67.852 303.388 67.852 308.336 46.307 303.84 46.307 300.642 62.24 300.552 62.24 297.504 46.307 292.857 46.307" fill="#8ebae5"/>
    <polygon points="308.724 46.307 308.724 67.852 321.066 67.852 321.066 64.292 313.069 64.292 313.069 58.498 320.312 58.498 320.312 54.937 313.069 54.937 313.069 49.868 320.764 49.868 320.764 46.307 308.724 46.307" fill="#8ebae5"/>
    <path d="M336.154,61.123v.875c0,3.984,1.931,6.277,6.85,6.277,4.707,0,7.483-2.052,7.483-6.609,0-2.625-.845-4.284-4.104-5.703l-3.349-1.448c-1.841-.785-2.233-1.599-2.233-2.927,0-1.267.513-2.505,2.474-2.505,1.659,0,2.354,1.177,2.354,3.199h4.164v-.604c0-4.134-2.807-5.793-6.669-5.793-4.104,0-6.668,2.142-6.668,6.336,0,3.591,1.78,5.191,5.642,6.518,2.867.996,3.863,1.72,3.863,3.682,0,1.81-1.268,2.655-2.595,2.655-2.294,0-2.867-1.297-2.867-3.319v-.634h-4.345Z" fill="#8ebae5"/>
    <rect x="351.055" y="46.307" width="4.345" height="21.545" fill="#8ebae5"/>
    <polygon points="377.969 46.307 374.951 54.635 374.891 54.635 372.055 46.307 355.969 46.307 355.969 49.868 360.676 49.868 360.676 67.852 365.022 67.852 365.022 49.868 368.687 49.868 372.748 59.373 372.748 67.852 377.094 67.852 377.094 59.373 382.677 46.307 377.969 46.307" fill="#8ebae5"/>
    <g>
      <path d="M219.799,44.347h-7.2v-21.641h11.807c3.202-.001,5.963,2.072,6.864,4.82.834,2.546.121,5.312-1.761,7.281.25.678.494,1.209.726,1.818.523,1.205,1.001,2.41,1.524,3.6l1.713,4.122h-7.301s-.058-.174-.116-.247c-.29-.638-.552-1.321-.842-1.959l-1.756-4.166c-.697-1.684-1.394-3.275-2.09-4.958.869-.024,1.519.139,2.358-.247.59-.29,1.484-1.011,1.507-2.394-.023-.685-.213-1.204-.666-1.744-.455-.502-1.113-.874-1.97-.886,0,0-2.798-.001-2.797,0v16.601Z" fill="#00549f"/>
      <path d="M295.004,22.706v21.641h-7.2v-8.824h-5.041v8.824c-1.306,0-2.714-.014-4.02,0h-3.18v-16.633h-5.036v16.633h-7.2v-16.633h-5.079v16.633h-7.417c-1.292-3.12-2.656-6.27-3.919-9.376-.145-.653-.29-1.307-.479-1.945v11.321h-7.432c-1.473-3.425-2.888-6.782-4.357-10.258-.509-1.204-.926-2.184-1.452-3.436l-.072-.164-1.144-2.685-1.638-3.835c-.144-.435-.376-.828-.522-1.263h7.415c1.524,3.701,3.062,7.359,4.659,11.002l.044.087c-.058-.421-.19-.958-.262-1.364v-6.459c.014-1.031,0-2.207,0-3.266h7.431c.094.236.146.363.218.552.871,2.046,1.699,4.078,2.57,6.11l1.945,4.427c-.044-.465-.146-.914-.204-1.364v-9.725h29.131v7.809h5.041v-7.809h7.2Z" fill="#00549f"/>
    </g>
    <path d="M315.889,36.193l2.092-9.73h.06l2.092,9.73h-4.244ZM301.462,36.193l2.091-9.73h.06l2.092,9.73h-4.243ZM320.709,22.704h-5.396l-4.516,17.059-4.516-17.059h-5.396l-5.729,21.643h4.547l1-4.577h5.761l.999,4.577h6.668l1-4.577h5.76l1,4.577h4.547l-5.729-21.643Z" fill="#8ebae5"/>
    <path d="M339.437,30.089c0-3.138-.452-7.695-6.669-7.695-6.517,0-7.333,4.647-7.333,11.195s.816,11.195,7.333,11.195c5.703,0,6.85-4.013,6.85-8.66h-4.345c0,4.647-1.147,5.462-2.716,5.462-1.871,0-2.776-1.177-2.776-7.695,0-6.095.513-8.298,2.716-8.298,1.961,0,2.595,1.358,2.595,4.496h4.345Z" fill="#8ebae5"/>
    <polygon points="340.477 44.347 344.841 44.347 344.841 34.739 349.933 34.739 349.933 44.347 354.298 44.347 354.298 22.706 349.933 22.706 349.933 30.981 344.841 30.981 344.841 22.706 340.477 22.706 340.477 44.347" fill="#8ebae5"/>
    <polygon points="355.244 22.702 355.244 44.347 367.644 44.347 367.644 40.77 359.61 40.77 359.61 34.949 366.886 34.949 366.886 31.372 359.61 31.372 359.61 26.279 367.34 26.279 367.34 22.702 355.244 22.702" fill="#8ebae5"/>
    <polygon points="368.292 22.706 368.292 44.347 372.293 44.347 372.293 29.192 372.353 29.192 377.688 44.347 382.659 44.347 382.659 22.706 378.658 22.706 378.658 37.527 378.597 37.527 373.323 22.706 368.292 22.706" fill="#8ebae5"/>
    <rect x="197.925" y="22.677" width="1" height="45.355" fill="#00549f"/>
    <g>
      <path d="M105.026,64.591c0-.64-.162-1.147-.485-1.52-.324-.373-.805-.56-1.445-.56-.32,0-.614.043-.88.13-.267.087-.497.238-.69.455-.194.217-.344.507-.45.87-.107.363-.16.822-.16,1.375,0,.54.043.992.13,1.355.086.363.215.653.385.87s.383.372.64.465c.256.093.558.14.905.14.733,0,1.258-.19,1.575-.57.316-.38.475-.923.475-1.63h-1.32c0,.44-.054.76-.16.96-.107.2-.277.3-.51.3-.154,0-.279-.035-.375-.105-.097-.07-.172-.182-.225-.335-.054-.153-.09-.348-.11-.585s-.03-.522-.03-.855c0-.307.01-.577.03-.81s.056-.425.11-.575c.053-.15.131-.263.235-.34.103-.077.241-.115.415-.115.126,0,.231.032.315.095.083.063.146.147.19.25.043.103.073.22.09.35.016.13.025.258.025.385h1.32ZM98.699,68.032h1.38v-5.38h-1.38v5.38ZM98.699,61.992h1.38v-1.18h-1.38v1.18ZM96.352,62.652v.6h-.02c-.134-.28-.304-.473-.51-.58-.207-.107-.407-.16-.6-.16-.374,0-.672.083-.895.25-.224.167-.394.382-.51.645-.117.263-.194.558-.23.885-.037.327-.055.647-.055.96,0,.98.138,1.678.415,2.095.276.417.688.625,1.235.625.22,0,.431-.06.635-.18.203-.12.375-.28.515-.48h.02v.71c0,.28-.057.512-.17.695-.114.183-.31.275-.59.275-.087,0-.169-.013-.245-.04-.077-.027-.149-.063-.215-.11-.14-.1-.21-.237-.21-.41h-1.32c0,.46.158.815.475,1.065.316.25.768.375,1.355.375.806,0,1.381-.172,1.725-.515.343-.343.515-.875.515-1.595v-5.11h-1.32ZM94.937,64.597c.016-.25.051-.45.105-.6.053-.15.126-.258.22-.325.093-.067.216-.1.37-.1.273,0,.461.137.565.41.103.273.155.737.155,1.39,0,.227-.012.435-.035.625-.024.19-.064.352-.12.485-.057.133-.134.238-.23.315-.097.077-.219.115-.365.115-.147,0-.265-.038-.355-.115s-.16-.18-.21-.31-.084-.278-.1-.445c-.017-.167-.025-.343-.025-.53,0-.36.008-.665.025-.915M90.003,64.581c.013-.233.045-.433.095-.6s.123-.297.22-.39c.096-.093.231-.14.405-.14.28,0,.473.147.58.44.106.293.16.777.16,1.45s-.054,1.157-.16,1.45c-.107.293-.3.44-.58.44-.174,0-.309-.047-.405-.14-.097-.093-.17-.223-.22-.39s-.082-.367-.095-.6c-.014-.233-.02-.487-.02-.76s.006-.527.02-.76M88.703,66.581c.066.353.18.65.34.89s.376.418.65.535c.273.117.616.172,1.03.165.393,0,.725-.062.995-.185s.488-.303.655-.54c.166-.237.286-.532.36-.885.073-.353.11-.76.11-1.22,0-.467-.034-.878-.1-1.235-.067-.357-.18-.655-.34-.895s-.377-.418-.65-.535c-.274-.117-.617-.172-1.03-.165-.394,0-.725.062-.995.185s-.489.303-.655.54c-.167.237-.287.532-.36.885-.074.353-.11.76-.11,1.22,0,.473.033.887.1,1.24M88.064,68.032v-1.18h-2.55v-5.96h-1.44v7.14h3.99ZM78.019,64.017c.09-.297.285-.445.585-.445.306,0,.505.148.595.445s.135.738.135,1.325-.045,1.028-.135,1.325-.289.445-.595.445c-.3,0-.495-.148-.585-.445s-.135-.738-.135-1.325.045-1.028.135-1.325M79.394,68.032h1.32v-7.14h-1.38v2.26h-.02c-.147-.213-.312-.373-.495-.48-.184-.107-.405-.16-.665-.16-.567,0-.984.222-1.25.665-.267.443-.4,1.165-.4,2.165s.133,1.722.4,2.165c.266.443.683.665,1.25.665.28,0,.515-.055.705-.165s.361-.292.515-.545h.02v.57ZM71.572,68.032h1.38v-3.57c0-.593.243-.89.73-.89.206,0,.356.055.45.165.093.11.14.305.14.585v3.71h1.38v-3.99c0-.54-.119-.93-.355-1.17-.237-.24-.575-.36-1.015-.36-.3,0-.567.062-.8.185-.234.123-.424.318-.57.585h-.02v-.63h-1.32v5.38ZM69.247,66.402c0,.153-.027.282-.08.385s-.122.188-.205.255-.175.115-.275.145-.197.045-.29.045c-.187,0-.32-.073-.4-.22s-.12-.323-.12-.53c0-.24.06-.43.18-.57s.32-.24.6-.3c.087-.02.183-.052.29-.095s.207-.102.3-.175v1.06ZM67.967,64.302v-.15c0-.213.053-.383.16-.51s.267-.19.48-.19c.233,0,.398.058.495.175s.145.278.145.485c0,.18-.04.317-.12.41s-.223.167-.43.22l-.78.21c-.24.067-.445.143-.615.23s-.31.195-.42.325-.192.287-.245.47-.08.402-.08.655c0,.18.023.362.07.545s.12.348.22.495.233.267.4.36.37.14.61.14c.333,0,.605-.047.815-.14s.395-.28.555-.56h.02c.02.093.042.188.065.285s.058.188.105.275h1.32c-.067-.16-.112-.31-.135-.45s-.035-.337-.035-.59v-2.83c0-.24-.025-.462-.075-.665s-.145-.378-.285-.525-.338-.26-.595-.34-.588-.12-.995-.12c-.26,0-.505.028-.735.085s-.43.15-.6.28-.305.302-.405.515-.15.473-.15.78v.13h1.24Z" fill="#00549f"/>
      <path d="M171.891,55.133v1.56h.52v.16c0,.187-.043.357-.13.51-.086.154-.216.247-.39.28v.7c.267-.026.485-.091.655-.195.17-.103.305-.236.405-.4.1-.163.169-.356.205-.58.037-.223.055-.468.055-.735v-1.3h-1.32ZM166.753,56.693h1.38v-3.57c0-.593.244-.89.73-.89.207,0,.357.055.45.165.094.11.14.305.14.585v3.71h1.38v-3.99c0-.54-.118-.93-.355-1.17-.236-.24-.575-.36-1.015-.36-.3,0-.566.062-.8.185-.233.124-.423.319-.57.585h-.02v-.63h-1.32v5.38ZM163.11,53.243c.014-.233.045-.433.095-.6.05-.166.124-.296.22-.39.097-.093.232-.14.405-.14.28,0,.474.147.58.44.107.294.16.777.16,1.45s-.053,1.157-.16,1.45c-.106.294-.3.44-.58.44-.173,0-.308-.046-.405-.14-.096-.093-.17-.223-.22-.39-.05-.166-.081-.366-.095-.6-.013-.233-.02-.486-.02-.76s.007-.526.02-.76M161.81,55.243c.067.354.18.65.34.89s.377.419.65.535c.274.117.617.172,1.03.165.394,0,.725-.061.995-.185.27-.123.489-.303.655-.54.167-.236.287-.531.36-.885.074-.353.11-.76.11-1.22,0-.466-.033-.878-.1-1.235-.066-.356-.18-.655-.34-.895s-.376-.418-.65-.535c-.273-.116-.616-.171-1.03-.165-.393,0-.725.062-.995.185-.27.124-.488.304-.655.54-.166.237-.286.532-.36.885-.073.354-.11.76-.11,1.22,0,.474.034.887.1,1.24M159.483,56.693h1.38v-5.38h-1.38v5.38ZM159.483,50.653h1.38v-1.18h-1.38v1.18ZM156.646,51.313h-.7v.94h.7v3.08c0,.274.016.5.05.68.033.18.095.325.185.435s.218.189.385.235c.166.047.386.07.66.07.16,0,.311-.006.455-.02.143-.013.291-.026.445-.04v-.96c-.047.007-.097.012-.15.015-.054.004-.107.005-.16.005-.2,0-.332-.045-.395-.135-.064-.09-.095-.241-.095-.455v-2.91h.8v-.94h-.8v-1.54h-1.38v1.54ZM153.995,55.063c0,.154-.027.282-.08.385-.054.104-.122.189-.205.255-.084.067-.175.115-.275.145s-.197.045-.29.045c-.187,0-.32-.073-.4-.22-.08-.146-.12-.323-.12-.53,0-.24.06-.43.18-.57s.32-.24.6-.3c.086-.02.183-.051.29-.095.106-.043.206-.101.3-.175v1.06ZM152.715,52.963v-.15c0-.213.053-.383.16-.51.106-.126.266-.19.48-.19.233,0,.398.059.495.175.096.117.145.279.145.485,0,.18-.04.317-.12.41-.08.094-.224.167-.43.22l-.78.21c-.24.067-.445.144-.615.23-.17.087-.31.195-.42.325s-.192.287-.245.47c-.054.184-.08.402-.08.655,0,.18.023.362.07.545.046.184.12.349.22.495.1.147.233.267.4.36.166.094.37.14.61.14.333,0,.605-.046.815-.14.21-.093.395-.28.555-.56h.02c.02.094.041.189.065.285.023.097.058.189.105.275h1.32c-.067-.16-.112-.31-.135-.45-.024-.14-.035-.336-.035-.59v-2.83c0-.24-.025-.461-.075-.665-.05-.203-.145-.378-.285-.525-.14-.146-.339-.26-.595-.34-.257-.08-.589-.12-.995-.12-.26,0-.505.029-.735.085-.23.057-.43.15-.6.28s-.305.302-.405.515c-.1.214-.15.474-.15.78v.13h1.24ZM150.685,53.253c0-.64-.162-1.146-.485-1.52-.324-.373-.805-.56-1.445-.56-.32,0-.614.044-.88.13-.267.087-.497.239-.69.455-.194.217-.344.507-.45.87-.107.364-.16.822-.16,1.375,0,.54.043.992.13,1.355.086.364.215.654.385.87.17.217.383.372.64.465.256.094.558.14.905.14.733,0,1.258-.19,1.575-.57.316-.38.475-.923.475-1.63h-1.32c0,.44-.054.76-.16.96-.107.2-.277.3-.51.3-.154,0-.279-.035-.375-.105-.097-.07-.172-.181-.225-.335-.054-.153-.09-.348-.11-.585-.02-.236-.03-.521-.03-.855,0-.306.01-.576.03-.81.02-.233.056-.425.11-.575.053-.15.131-.263.235-.34.103-.076.241-.115.415-.115.126,0,.231.032.315.095.083.064.146.147.19.25.043.104.073.22.09.35.016.13.025.259.025.385h1.32ZM144.33,56.693h1.38v-5.38h-1.38v5.38ZM144.33,50.653h1.38v-1.18h-1.38v1.18ZM141.6,56.693h1.38v-4.44h.8v-.94h-.8v-.47c0-.153.04-.263.12-.33.08-.066.216-.1.41-.1h.13c.06,0,.106.004.14.01v-.98c-.254-.02-.5-.03-.74-.03-.22,0-.42.022-.6.065-.18.044-.332.115-.455.215-.124.1-.219.234-.285.4-.067.167-.1.37-.1.61v.61h-.7v.94h.7v4.44ZM138.84,56.693h1.38v-5.38h-1.38v5.38ZM138.84,50.653h1.38v-1.18h-1.38v1.18ZM135.38,56.693h1.38v-3.23c0-.18.03-.331.09-.455.06-.123.14-.223.24-.3.1-.076.21-.131.33-.165.12-.033.24-.05.36-.05.073,0,.145.002.215.005.07.004.142.009.215.015v-1.32c-.04-.006-.082-.011-.125-.015-.043-.003-.085-.005-.125-.005-.287,0-.53.079-.73.235-.2.157-.37.365-.51.625h-.02v-.72h-1.32v5.38ZM131.85,53.393v-.21c0-.126.012-.253.035-.38.023-.126.062-.241.115-.345.053-.103.125-.186.215-.25.09-.063.205-.095.345-.095s.255.029.345.085c.09.057.16.14.21.25s.085.244.105.4c.02.157.033.339.04.545h-1.41ZM134.58,54.213v-.31c0-.413-.027-.788-.08-1.125-.053-.336-.153-.623-.3-.86-.147-.236-.348-.42-.605-.55s-.585-.195-.985-.195c-.467,0-.84.077-1.12.23-.28.154-.495.36-.645.62s-.25.557-.3.89c-.05.334-.075.68-.075,1.04,0,.334.015.672.045,1.015.03.344.112.654.245.93.133.277.34.502.62.675.28.174.67.26,1.17.26.66,0,1.143-.168,1.45-.505.307-.336.473-.818.5-1.445h-1.24c-.04.34-.113.594-.22.76-.107.167-.277.25-.51.25-.127,0-.233-.035-.32-.105s-.157-.163-.21-.28c-.053-.116-.092-.25-.115-.4s-.035-.305-.035-.465v-.43h2.73ZM125.187,49.553l1.64,7.14h1.85l1.64-7.14h-1.49l-1.06,5.28h-.03l-1.01-5.28h-1.54ZM120.897,55.133v1.56h.52v.16c0,.187-.043.357-.13.51-.086.154-.216.247-.39.28v.7c.267-.026.485-.091.655-.195.17-.103.305-.236.405-.4.1-.163.169-.356.205-.58.037-.223.055-.468.055-.735v-1.3h-1.32ZM116.059,54.933v.19c0,.26.03.495.09.705s.165.39.315.54.352.265.605.345c.254.08.577.12.97.12.287,0,.554-.035.8-.105.247-.07.459-.175.635-.315.177-.14.315-.316.415-.53.1-.213.15-.46.15-.74,0-.406-.09-.728-.27-.965-.18-.236-.486-.428-.92-.575l-.83-.28c-.233-.073-.391-.163-.475-.27-.083-.106-.125-.226-.125-.36,0-.193.065-.338.195-.435.13-.096.282-.145.455-.145.227,0,.385.065.475.195s.135.335.135.615h1.24v-.22c0-.486-.15-.863-.45-1.13-.3-.266-.763-.4-1.39-.4-.353,0-.655.044-.905.13-.25.087-.455.204-.615.35-.16.147-.276.319-.35.515-.073.197-.11.405-.11.625,0,.38.097.692.29.935.194.244.48.432.86.565l.97.35c.134.054.25.125.35.215s.15.222.15.395c0,.214-.063.374-.19.48-.126.107-.296.16-.51.16-.233,0-.411-.071-.535-.215-.123-.143-.185-.331-.185-.565v-.18h-1.24ZM108.639,56.693h1.38v-3.54c0-.32.065-.553.195-.7.13-.146.305-.22.525-.22.194,0,.332.06.415.18.084.12.125.294.125.52v3.76h1.38v-3.54c0-.32.065-.553.195-.7.13-.146.305-.22.525-.22.194,0,.332.06.415.18.084.12.125.294.125.52v3.76h1.38v-3.91c0-.52-.108-.918-.325-1.195-.216-.276-.555-.415-1.015-.415-.326,0-.608.072-.845.215-.236.144-.408.359-.515.645h-.02c-.073-.28-.218-.493-.435-.64-.216-.146-.485-.22-.805-.22-.3,0-.558.054-.775.16-.216.107-.411.284-.585.53h-.02v-.55h-1.32v5.38ZM103.583,56.693h1.38v-3.57c0-.593.244-.89.73-.89.207,0,.357.055.45.165.094.11.14.305.14.585v3.71h1.38v-3.99c0-.54-.118-.93-.355-1.17-.236-.24-.575-.36-1.015-.36-.606,0-1.043.23-1.31.69h-.02v-2.31h-1.38v7.14ZM100.798,51.313h-.7v.94h.7v3.08c0,.274.016.5.05.68.033.18.095.325.185.435s.218.189.385.235c.166.047.386.07.66.07.16,0,.311-.006.455-.02.143-.013.291-.026.445-.04v-.96c-.047.007-.097.012-.15.015-.054.004-.107.005-.16.005-.2,0-.332-.045-.395-.135-.064-.09-.095-.241-.095-.455v-2.91h.8v-.94h-.8v-1.54h-1.38v1.54ZM98.077,56.693h1.38v-5.38h-1.38v5.38ZM98.077,50.653h1.38v-1.18h-1.38v1.18ZM94.617,56.693h1.38v-3.23c0-.18.03-.331.09-.455.06-.123.14-.223.24-.3.1-.076.21-.131.33-.165.12-.033.24-.05.36-.05.073,0,.145.002.215.005.07.004.141.009.215.015v-1.32c-.04-.006-.082-.011-.125-.015-.044-.003-.085-.005-.125-.005-.287,0-.53.079-.73.235-.2.157-.37.365-.51.625h-.02v-.72h-1.32v5.38ZM90.974,53.243c.013-.233.045-.433.095-.6.05-.166.123-.296.22-.39.096-.093.231-.14.405-.14.28,0,.473.147.58.44.106.294.16.777.16,1.45s-.054,1.157-.16,1.45c-.107.294-.3.44-.58.44-.174,0-.309-.046-.405-.14-.097-.093-.17-.223-.22-.39-.05-.166-.082-.366-.095-.6-.014-.233-.02-.486-.02-.76s.006-.526.02-.76M89.674,55.243c.066.354.18.65.34.89s.376.419.65.535c.273.117.616.172,1.03.165.393,0,.725-.061.995-.185.27-.123.488-.303.655-.54.166-.236.286-.531.36-.885.073-.353.11-.76.11-1.22,0-.466-.034-.878-.1-1.235-.067-.356-.18-.655-.34-.895s-.377-.418-.65-.535c-.274-.116-.617-.171-1.03-.165-.394,0-.725.062-.995.185-.27.124-.489.304-.655.54-.167.237-.287.532-.36.885-.074.354-.11.76-.11,1.22,0,.474.033.887.1,1.24M87.413,51.313v.6h-.02c-.134-.28-.304-.473-.51-.58-.207-.106-.407-.16-.6-.16-.374,0-.672.084-.895.25-.224.167-.394.382-.51.645-.117.264-.194.559-.23.885-.037.327-.055.647-.055.96,0,.98.138,1.679.415,2.095.276.417.688.625,1.235.625.22,0,.431-.06.635-.18.203-.12.375-.28.515-.48h.02v.71c0,.28-.057.512-.17.695-.114.184-.31.275-.59.275-.087,0-.169-.013-.245-.04-.077-.026-.149-.063-.215-.11-.14-.1-.21-.236-.21-.41h-1.32c0,.46.158.815.475,1.065.316.25.768.375,1.355.375.806,0,1.381-.171,1.725-.515s.515-.875.515-1.595v-5.11h-1.32ZM85.998,53.258c.016-.25.051-.45.105-.6.053-.15.126-.258.22-.325.093-.066.216-.1.37-.1.273,0,.461.137.565.41.103.274.155.737.155,1.39,0,.227-.012.435-.035.625-.024.19-.064.352-.12.485-.057.134-.134.239-.23.315-.097.077-.219.115-.365.115-.147,0-.265-.038-.355-.115-.09-.076-.16-.18-.21-.31s-.084-.278-.1-.445c-.017-.166-.025-.343-.025-.53,0-.36.008-.665.025-.915M82.319,56.693h1.38v-7.14h-1.38v7.14ZM76.11,56.693h1.5l.33-1.51h1.9l.33,1.51h1.5l-1.89-7.14h-1.78l-1.89,7.14ZM78.88,50.793h.02l.69,3.21h-1.4l.69-3.21ZM69.17,56.693h1.38v-3.57c0-.593.243-.89.73-.89.207,0,.357.055.45.165s.14.305.14.585v3.71h1.38v-3.99c0-.54-.118-.93-.355-1.17s-.575-.36-1.015-.36c-.3,0-.567.062-.8.185-.233.124-.423.319-.57.585h-.02v-.63h-1.32v5.38ZM66.787,56.693h1.38v-5.38h-1.38v5.38ZM66.787,50.653h1.38v-1.18h-1.38v1.18Z" fill="#00549f"/>
      <path d="M180.272,43.594v.19c0,.26.03.495.09.705s.165.39.315.54.351.265.605.345c.253.08.576.12.97.12.286,0,.553-.035.8-.105.246-.07.458-.175.635-.315.176-.14.315-.317.415-.53s.15-.46.15-.74c0-.407-.09-.728-.27-.965s-.487-.428-.92-.575l-.83-.28c-.234-.073-.392-.163-.475-.27-.084-.107-.125-.227-.125-.36,0-.193.065-.338.195-.435s.281-.145.455-.145c.226,0,.385.065.475.195s.135.335.135.615h1.24v-.22c0-.487-.15-.863-.45-1.13s-.764-.4-1.39-.4c-.354,0-.655.043-.905.13s-.455.203-.615.35-.277.318-.35.515c-.074.197-.11.405-.11.625,0,.38.096.692.29.935.193.243.48.432.86.565l.97.35c.133.053.25.125.35.215s.15.222.15.395c0,.213-.064.373-.19.48-.127.107-.297.16-.51.16-.234,0-.412-.072-.535-.215-.124-.143-.185-.332-.185-.565v-.18h-1.24ZM175.708,43.594v.19c0,.26.03.495.09.705s.165.39.315.54.352.265.605.345.577.12.97.12c.287,0,.553-.035.8-.105s.458-.175.635-.315.315-.317.415-.53.15-.46.15-.74c0-.407-.09-.728-.27-.965s-.487-.428-.92-.575l-.83-.28c-.233-.073-.392-.163-.475-.27s-.125-.227-.125-.36c0-.193.065-.338.195-.435s.282-.145.455-.145c.227,0,.385.065.475.195s.135.335.135.615h1.24v-.22c0-.487-.15-.863-.45-1.13s-.763-.4-1.39-.4c-.353,0-.655.043-.905.13s-.455.203-.615.35-.277.318-.35.515-.11.405-.11.625c0,.38.097.692.29.935s.48.432.86.565l.97.35c.133.053.25.125.35.215s.15.222.15.395c0,.213-.063.373-.19.48s-.297.16-.51.16c-.233,0-.412-.072-.535-.215s-.185-.332-.185-.565v-.18h-1.24ZM172.402,42.054v-.21c0-.127.012-.253.035-.38s.062-.242.115-.345.125-.187.215-.25.205-.095.345-.095.255.028.345.085.16.14.21.25.085.243.105.4.033.338.04.545h-1.41ZM175.132,42.874v-.31c0-.413-.027-.788-.08-1.125s-.153-.623-.3-.86-.348-.42-.605-.55-.585-.195-.985-.195c-.467,0-.84.077-1.12.23s-.495.36-.645.62-.25.557-.3.89-.075.68-.075,1.04c0,.333.015.672.045,1.015s.112.653.245.93.34.502.62.675.67.26,1.17.26c.66,0,1.143-.168,1.45-.505s.473-.818.5-1.445h-1.24c-.04.34-.113.593-.22.76s-.277.25-.51.25c-.127,0-.233-.035-.32-.105s-.157-.163-.21-.28-.092-.25-.115-.4-.035-.305-.035-.465v-.43h2.73ZM166.137,45.354h1.38v-3.57c0-.593.243-.89.73-.89.207,0,.357.055.45.165s.14.305.14.585v3.71h1.38v-3.99c0-.54-.118-.93-.355-1.17s-.575-.36-1.015-.36c-.3,0-.567.062-.8.185s-.423.318-.57.585h-.02v-.63h-1.32v5.38ZM158.505,45.354h1.38v-3.54c0-.32.065-.553.195-.7s.305-.22.525-.22c.193,0,.332.06.415.18s.125.293.125.52v3.76h1.38v-3.54c0-.32.065-.553.195-.7s.305-.22.525-.22c.193,0,.332.06.415.18s.125.293.125.52v3.76h1.38v-3.91c0-.52-.108-.918-.325-1.195s-.555-.415-1.015-.415c-.327,0-.608.072-.845.215s-.408.358-.515.645h-.02c-.073-.28-.218-.493-.435-.64s-.485-.22-.805-.22c-.3,0-.558.053-.775.16s-.412.283-.585.53h-.02v-.55h-1.32v5.38ZM154.862,41.904c.013-.233.045-.433.095-.6s.123-.297.22-.39.232-.14.405-.14c.28,0,.473.147.58.44s.16.777.16,1.45-.053,1.157-.16,1.45-.3.44-.58.44c-.173,0-.308-.047-.405-.14s-.17-.223-.22-.39-.082-.367-.095-.6-.02-.487-.02-.76.007-.527.02-.76M153.562,43.904c.067.353.18.65.34.89s.377.418.65.535.617.172,1.03.165c.393,0,.725-.062.995-.185s.488-.303.655-.54.287-.532.36-.885.11-.76.11-1.22c0-.467-.033-.878-.1-1.235s-.18-.655-.34-.895-.377-.418-.65-.535-.617-.172-1.03-.165c-.393,0-.725.062-.995.185s-.488.303-.655.54-.287.532-.36.885-.11.76-.11,1.22c0,.473.033.887.1,1.24M149.952,41.339c.09-.297.285-.445.585-.445.307,0,.505.148.595.445s.135.738.135,1.325-.045,1.028-.135,1.325-.288.445-.595.445c-.3,0-.495-.148-.585-.445s-.135-.738-.135-1.325.045-1.028.135-1.325M151.327,45.354h1.32v-7.14h-1.38v2.26h-.02c-.147-.213-.312-.373-.495-.48s-.405-.16-.665-.16c-.567,0-.983.222-1.25.665s-.4,1.165-.4,2.165.133,1.722.4,2.165.683.665,1.25.665c.28,0,.515-.055.705-.165s.362-.292.515-.545h.02v.57ZM143.505,45.354h1.38v-3.57c0-.593.243-.89.73-.89.207,0,.357.055.45.165s.14.305.14.585v3.71h1.38v-3.99c0-.54-.118-.93-.355-1.17s-.575-.36-1.015-.36c-.3,0-.567.062-.8.185s-.423.318-.57.585h-.02v-.63h-1.32v5.38ZM141.18,43.724c0,.153-.026.282-.08.385-.053.103-.121.188-.205.255-.083.067-.175.115-.275.145s-.196.045-.29.045c-.186,0-.32-.073-.4-.22s-.12-.323-.12-.53c0-.24.06-.43.18-.57s.32-.24.6-.3c.087-.02.184-.052.29-.095.107-.043.207-.102.3-.175v1.06ZM139.9,41.624v-.15c0-.213.054-.383.16-.51.107-.127.267-.19.48-.19.234,0,.399.058.495.175.097.117.145.278.145.485,0,.18-.04.317-.12.41s-.223.167-.43.22l-.78.21c-.24.067-.445.143-.615.23s-.31.195-.42.325-.191.287-.245.47c-.053.183-.08.402-.08.655,0,.18.024.362.07.545.047.183.12.348.22.495s.234.267.4.36c.167.093.37.14.61.14.334,0,.605-.047.815-.14s.395-.28.555-.56h.02c.02.093.042.188.065.285.024.097.059.188.105.275h1.32c-.066-.16-.111-.31-.135-.45-.023-.14-.035-.337-.035-.59v-2.83c0-.24-.025-.462-.075-.665s-.145-.378-.285-.525-.338-.26-.595-.34c-.256-.08-.588-.12-.995-.12-.26,0-.505.028-.735.085s-.43.15-.6.28-.305.302-.405.515-.15.473-.15.78v.13h1.24ZM134.597,39.274h.68c.667,0,1,.33,1,.99,0,.387-.093.662-.28.825-.186.163-.453.245-.8.245h-.6v-2.06ZM133.157,45.354h1.44v-3.02h.761c.296,0,.507.08.632.24s.195.38.208.66l.039,1.37c.007.14.02.275.041.405.02.13.067.245.141.345h1.578v-.06c-.133-.073-.218-.21-.255-.41-.036-.2-.058-.49-.065-.87-.006-.38-.025-.7-.055-.96s-.085-.475-.165-.645-.193-.3-.34-.39c-.146-.09-.343-.152-.59-.185v-.02c.407-.087.707-.282.9-.585.194-.303.29-.695.29-1.175,0-.62-.166-1.082-.5-1.385-.333-.303-.8-.455-1.4-.455h-2.66v7.14ZM127.155,41.339c.09-.297.285-.445.585-.445.307,0,.505.148.595.445s.135.738.135,1.325-.045,1.028-.135,1.325-.288.445-.595.445c-.3,0-.495-.148-.585-.445s-.135-.738-.135-1.325.045-1.028.135-1.325M128.53,45.354h1.32v-7.14h-1.38v2.26h-.02c-.147-.213-.312-.373-.495-.48s-.405-.16-.665-.16c-.567,0-.983.222-1.25.665s-.4,1.165-.4,2.165.133,1.722.4,2.165.683.665,1.25.665c.28,0,.515-.055.705-.165s.362-.292.515-.545h.02v.57ZM120.708,45.354h1.38v-3.57c0-.593.243-.89.73-.89.207,0,.357.055.45.165s.14.305.14.585v3.71h1.38v-3.99c0-.54-.118-.93-.355-1.17s-.575-.36-1.015-.36c-.3,0-.567.062-.8.185s-.423.318-.57.585h-.02v-.63h-1.32v5.38ZM118.383,43.724c0,.153-.026.282-.08.385-.053.103-.121.188-.205.255-.083.067-.175.115-.275.145s-.196.045-.29.045c-.186,0-.32-.073-.4-.22s-.12-.323-.12-.53c0-.24.06-.43.18-.57s.32-.24.6-.3c.087-.02.184-.052.29-.095.107-.043.207-.102.3-.175v1.06ZM117.103,41.624v-.15c0-.213.054-.383.16-.51.107-.127.267-.19.48-.19.234,0,.399.058.495.175.097.117.145.278.145.485,0,.18-.04.317-.12.41s-.223.167-.43.22l-.78.21c-.24.067-.445.143-.615.23s-.31.195-.42.325-.191.287-.245.47c-.053.183-.08.402-.08.655,0,.18.024.362.07.545.047.183.12.348.22.495s.234.267.4.36c.167.093.37.14.61.14.334,0,.605-.047.815-.14s.395-.28.555-.56h.02c.02.093.042.188.065.285.024.097.059.188.105.275h1.32c-.066-.16-.111-.31-.135-.45-.023-.14-.035-.337-.035-.59v-2.83c0-.24-.025-.462-.075-.665s-.145-.378-.285-.525-.338-.26-.595-.34c-.256-.08-.588-.12-.995-.12-.26,0-.505.028-.735.085s-.43.15-.6.28-.305.302-.405.515-.15.473-.15.78v.13h1.24ZM109.086,47.114h.56c.32,0,.585-.023.795-.07s.39-.145.54-.295.3-.417.45-.8.245-.702.285-.955l1.3-5.02h-1.38l-.7,3.72h-.02l-.8-3.72h-1.44l1.51,5.38c-.02.24-.085.427-.195.56s-.291.2-.545.2c-.12,0-.24-.01-.36-.03v1.03ZM106.119,39.974h-.7v.94h.7v3.08c0,.273.017.5.05.68.034.18.095.325.185.435s.219.188.385.235c.167.047.387.07.66.07.16,0,.312-.007.455-.02.144-.013.292-.027.445-.04v-.96c-.046.007-.096.012-.15.015-.053.003-.106.005-.16.005-.2,0-.331-.045-.394-.135-.064-.09-.095-.242-.095-.455v-2.91h.799v-.94h-.799v-1.54h-1.381v1.54ZM100.735,45.354h1.38v-3.57c0-.593.244-.89.73-.89.207,0,.357.055.45.165.094.11.14.305.14.585v3.71h1.38v-3.99c0-.54-.118-.93-.355-1.17-.236-.24-.574-.36-1.015-.36-.3,0-.566.062-.8.185-.233.123-.423.318-.57.585h-.02v-.63h-1.32v5.38ZM98.353,45.354h1.38v-5.38h-1.38v5.38ZM98.353,39.314h1.38v-1.18h-1.38v1.18ZM95.995,43.724c0,.153-.027.282-.08.385-.054.103-.122.188-.205.255-.084.067-.175.115-.275.145s-.197.045-.29.045c-.187,0-.32-.073-.4-.22s-.12-.323-.12-.53c0-.24.06-.43.18-.57s.32-.24.6-.3c.086-.02.183-.052.29-.095.106-.043.206-.102.3-.175v1.06ZM94.715,41.624v-.15c0-.213.053-.383.16-.51.106-.127.266-.19.48-.19.233,0,.398.058.495.175.096.117.145.278.145.485,0,.18-.04.317-.12.41s-.224.167-.43.22l-.78.21c-.24.067-.445.143-.615.23s-.31.195-.42.325-.192.287-.245.47c-.054.183-.08.402-.08.655,0,.18.023.362.07.545.046.183.12.348.22.495s.233.267.4.36c.166.093.37.14.61.14.333,0,.605-.047.815-.14s.395-.28.555-.56h.02c.02.093.041.188.065.285.023.097.058.188.105.275h1.32c-.067-.16-.112-.31-.135-.45-.024-.14-.035-.337-.035-.59v-2.83c0-.24-.025-.462-.075-.665s-.145-.378-.285-.525-.339-.26-.595-.34c-.257-.08-.589-.12-.995-.12-.26,0-.505.028-.735.085s-.43.15-.6.28-.305.302-.405.515-.15.473-.15.78v.13h1.24ZM90.639,39.974h-.7v.94h.7v3.08c0,.273.016.5.05.68.033.18.095.325.185.435s.218.188.385.235c.166.047.386.07.66.07.16,0,.311-.007.455-.02.143-.013.291-.027.445-.04v-.96c-.047.007-.097.012-.15.015-.054.003-.107.005-.16.005-.2,0-.332-.045-.395-.135-.064-.09-.095-.242-.095-.455v-2.91h.8v-.94h-.8v-1.54h-1.38v1.54ZM86.711,45.354h1.38v-3.23c0-.18.03-.332.09-.455s.14-.223.24-.3.21-.132.33-.165.24-.05.36-.05c.073,0,.145.002.215.005s.141.008.215.015v-1.32c-.04-.007-.082-.012-.125-.015-.044-.003-.085-.005-.125-.005-.287,0-.53.078-.73.235s-.37.365-.51.625h-.02v-.72h-1.32v5.38ZM83.181,42.054v-.21c0-.127.011-.253.035-.38.023-.127.061-.242.115-.345.053-.103.125-.187.215-.25s.205-.095.345-.095.255.028.345.085.16.14.21.25.085.243.105.4.033.338.04.545h-1.41ZM85.911,42.874v-.31c0-.413-.027-.788-.08-1.125-.054-.337-.154-.623-.3-.86-.147-.237-.349-.42-.605-.55-.257-.13-.585-.195-.985-.195-.467,0-.84.077-1.12.23s-.495.36-.645.62-.25.557-.3.89-.075.68-.075,1.04c0,.333.015.672.045,1.015s.111.653.245.93c.133.277.34.502.62.675s.67.26,1.17.26c.66,0,1.143-.168,1.45-.505.306-.337.473-.818.5-1.445h-1.24c-.04.34-.114.593-.22.76-.107.167-.277.25-.51.25-.127,0-.234-.035-.32-.105-.087-.07-.157-.163-.21-.28-.054-.117-.092-.25-.115-.4-.024-.15-.035-.305-.035-.465v-.43h2.73ZM81.196,41.914c0-.64-.162-1.147-.485-1.52s-.805-.56-1.445-.56c-.32,0-.614.043-.88.13-.267.087-.497.238-.69.455s-.343.507-.45.87-.16.822-.16,1.375c0,.54.043.992.13,1.355s.215.653.385.87.383.372.64.465.558.14.905.14c.733,0,1.258-.19,1.575-.57s.475-.923.475-1.63h-1.32c0,.44-.054.76-.16.96-.107.2-.277.3-.51.3-.153,0-.278-.035-.375-.105s-.172-.182-.225-.335-.09-.348-.11-.585-.03-.522-.03-.855c0-.307.01-.577.03-.81s.057-.425.11-.575.132-.263.235-.34.242-.115.415-.115c.127,0,.232.032.315.095s.147.147.19.25.073.22.09.35.025.258.025.385h1.32ZM72.213,45.354h1.38v-3.57c0-.593.243-.89.73-.89.206,0,.357.055.45.165s.14.305.14.585v3.71h1.38v-3.99c0-.54-.118-.93-.355-1.17s-.575-.36-1.015-.36c-.3,0-.567.062-.8.185-.234.123-.423.318-.57.585h-.02v-.63h-1.32v5.38ZM66.687,38.214v4.98c0,.48.063.868.19,1.165s.297.53.51.7.457.285.73.345.557.09.85.09.577-.035.85-.105.517-.192.73-.365.383-.408.51-.705.19-.672.19-1.125v-4.98h-1.44v4.98c0,.18-.012.345-.035.495s-.067.28-.13.39-.15.197-.26.26-.248.095-.415.095c-.173,0-.313-.032-.42-.095s-.192-.15-.255-.26-.107-.24-.13-.39-.035-.315-.035-.495v-4.98h-1.44Z" fill="#00549f"/>
      <path d="M167.515,31.686h5v-1.12h-5v1.12ZM162.09,30.001c.09-.297.288-.445.595-.445.3,0,.495.148.585.445s.135.738.135,1.325-.045,1.028-.135,1.325-.285.445-.585.445c-.307,0-.505-.148-.595-.445s-.135-.738-.135-1.325.045-1.028.135-1.325M160.575,35.776h1.38v-2.26h.02c.146.213.311.373.495.48.183.107.405.16.665.16.566,0,.983-.222,1.25-.665.266-.443.4-1.165.4-2.165s-.134-1.722-.4-2.165c-.267-.443-.684-.665-1.25-.665-.28,0-.515.055-.705.165s-.362.292-.515.545h-.02v-.57h-1.32v7.14ZM158.277,34.016h1.32v-5.38h-1.38v3.57c0,.593-.244.89-.73.89-.207,0-.357-.055-.45-.165-.094-.11-.14-.305-.14-.585v-3.71h-1.38v3.99c0,.54.118.93.355,1.17.236.24.575.36,1.015.36.3,0,.566-.062.8-.185.233-.123.423-.318.57-.585h.02v.63ZM151.874,30.566c.013-.233.045-.433.095-.6s.123-.297.22-.39c.096-.093.231-.14.405-.14.28,0,.473.147.58.44.106.293.16.777.16,1.45s-.054,1.157-.16,1.45c-.107.293-.3.44-.58.44-.174,0-.309-.047-.405-.14-.097-.093-.17-.223-.22-.39s-.082-.367-.095-.6c-.014-.233-.02-.487-.02-.76s.006-.527.02-.76M150.574,32.566c.066.353.18.65.34.89s.376.418.65.535c.273.117.616.172,1.03.165.393,0,.725-.062.995-.185s.488-.303.655-.54c.166-.237.286-.532.36-.885.073-.353.11-.76.11-1.22,0-.467-.034-.878-.1-1.235-.067-.357-.18-.655-.34-.895s-.377-.418-.65-.535c-.274-.117-.617-.172-1.03-.165-.394,0-.725.062-.995.185s-.489.303-.655.54c-.167.237-.287.532-.36.885-.074.353-.11.76-.11,1.22,0,.473.033.887.1,1.24M147.191,34.016h1.38v-3.23c0-.18.03-.332.09-.455s.14-.223.24-.3.21-.132.33-.165.24-.05.36-.05c.073,0,.145.002.215.005s.142.008.215.015v-1.32c-.04-.007-.082-.012-.125-.015s-.085-.005-.125-.005c-.287,0-.53.078-.73.235s-.37.365-.51.625h-.02v-.72h-1.32v5.38ZM146.131,28.996c0-.727-.173-1.285-.52-1.675s-.913-.585-1.7-.585c-.46,0-.844.077-1.15.23-.307.153-.553.382-.74.685s-.318.682-.395,1.135-.115.98-.115,1.58c0,.62.026,1.165.08,1.635.053.47.158.865.315,1.185.156.32.373.562.65.725s.635.245,1.075.245c.34,0,.632-.063.875-.19s.452-.33.625-.61h.02v.66h1.06v-3.85h-2.33v1.06h.95v.73c0,.193-.03.362-.09.505s-.135.262-.225.355-.187.163-.29.21-.198.07-.285.07c-.207,0-.375-.065-.505-.195s-.23-.317-.3-.56-.118-.537-.145-.88-.04-.732-.04-1.165c0-.893.077-1.533.23-1.92s.403-.58.75-.58c.147,0,.272.038.375.115s.188.173.255.29c.066.117.115.247.145.39s.045.278.045.405h1.38ZM136.851,28.636v.6h-.02c-.133-.28-.303-.473-.51-.58s-.407-.16-.6-.16c-.373,0-.672.083-.895.25s-.393.382-.51.645-.193.558-.23.885-.055.647-.055.96c0,.98.138,1.678.415,2.095s.688.625,1.235.625c.22,0,.432-.06.635-.18s.375-.28.515-.48h.02v.71c0,.28-.057.512-.17.695s-.31.275-.59.275c-.087,0-.168-.013-.245-.04s-.148-.063-.215-.11c-.14-.1-.21-.237-.21-.41h-1.32c0,.46.158.815.475,1.065s.768.375,1.355.375c.807,0,1.382-.172,1.725-.515s.515-.875.515-1.595v-5.11h-1.32ZM135.436,30.581c.017-.25.052-.45.105-.6s.127-.258.22-.325.217-.1.37-.1c.273,0,.462.137.565.41s.155.737.155,1.39c0,.227-.012.435-.035.625s-.063.352-.12.485-.133.238-.23.315-.218.115-.365.115-.265-.038-.355-.115-.16-.18-.21-.31-.083-.278-.1-.445-.025-.343-.025-.53c0-.36.008-.665.025-.915M129.1,34.016h1.38v-3.57c0-.593.243-.89.73-.89.207,0,.357.055.45.165s.14.305.14.585v3.71h1.38v-3.99c0-.54-.118-.93-.355-1.17s-.575-.36-1.015-.36c-.3,0-.567.062-.8.185s-.423.318-.57.585h-.02v-.63h-1.32v5.38ZM126.717,34.016h1.38v-5.38h-1.38v5.38ZM126.717,27.976h1.38v-1.18h-1.38v1.18ZM121.638,34.016h1.38v-3.57c0-.593.243-.89.73-.89.207,0,.357.055.45.165s.14.305.14.585v3.71h1.38v-3.99c0-.54-.118-.93-.355-1.17s-.575-.36-1.015-.36c-.3,0-.567.062-.8.185s-.423.318-.57.585h-.02v-.63h-1.32v5.38ZM119.255,34.016h1.38v-5.38h-1.38v5.38ZM119.255,27.976h1.38v-1.18h-1.38v1.18ZM116.897,32.386c0,.153-.026.282-.08.385-.053.103-.121.188-.205.255-.083.067-.175.115-.275.145s-.196.045-.29.045c-.186,0-.32-.073-.4-.22s-.12-.323-.12-.53c0-.24.06-.43.18-.57s.32-.24.6-.3c.087-.02.184-.052.29-.095.107-.043.207-.102.3-.175v1.06ZM115.617,30.286v-.15c0-.213.054-.383.16-.51.107-.127.267-.19.48-.19.234,0,.399.058.495.175.097.117.145.278.145.485,0,.18-.04.317-.12.41s-.223.167-.43.22l-.78.21c-.24.067-.445.143-.615.23s-.31.195-.42.325-.191.287-.245.47c-.053.183-.08.402-.08.655,0,.18.024.362.07.545.047.183.12.348.22.495s.234.267.4.36c.167.093.37.14.61.14.334,0,.605-.047.815-.14s.395-.28.555-.56h.02c.02.093.042.188.065.285.024.097.059.188.105.275h1.32c-.066-.16-.111-.31-.135-.45-.023-.14-.035-.337-.035-.59v-2.83c0-.24-.025-.462-.075-.665s-.145-.378-.285-.525-.338-.26-.595-.34c-.256-.08-.588-.12-.995-.12-.26,0-.505.028-.735.085s-.43.15-.6.28-.305.302-.405.515-.15.473-.15.78v.13h1.24ZM110.948,34.016h1.38v-3.23c0-.18.03-.332.09-.455s.14-.223.24-.3.21-.132.33-.165.24-.05.36-.05c.074,0,.145.002.215.005s.142.008.215.015v-1.32c-.04-.007-.081-.012-.125-.015-.043-.003-.085-.005-.125-.005-.286,0-.53.078-.73.235s-.37.365-.51.625h-.02v-.72h-1.32v5.38ZM106.291,26.876v1.18h1.56v5.96h1.44v-5.96h1.56v-1.18h-4.56ZM99.232,34.016h1.38v-3.57c0-.593.243-.89.73-.89.206,0,.356.055.45.165.093.11.14.305.14.585v3.71h1.38v-3.99c0-.54-.119-.93-.355-1.17-.237-.24-.575-.36-1.015-.36-.607,0-1.044.23-1.31.69h-.02v-2.31h-1.38v7.14ZM98.444,30.576c0-.64-.162-1.147-.485-1.52-.324-.373-.805-.56-1.445-.56-.32,0-.614.043-.88.13-.267.087-.497.238-.69.455-.194.217-.344.507-.45.87-.107.363-.16.822-.16,1.375,0,.54.043.992.13,1.355.086.363.215.653.385.87s.383.372.64.465c.256.093.558.14.905.14.733,0,1.258-.19,1.575-.57.316-.38.475-.923.475-1.63h-1.32c0,.44-.054.76-.16.96-.107.2-.277.3-.51.3-.154,0-.279-.035-.375-.105-.097-.07-.172-.182-.225-.335-.054-.153-.09-.348-.11-.585s-.03-.522-.03-.855c0-.307.01-.577.03-.81s.056-.425.11-.575c.053-.15.131-.263.235-.34.103-.077.241-.115.415-.115.126,0,.231.032.315.095.083.063.146.147.19.25.043.103.073.22.09.35.016.13.025.258.025.385h1.32ZM91.071,34.016h1.38v-3.23c0-.18.03-.332.09-.455s.14-.223.24-.3.21-.132.33-.165.24-.05.36-.05c.073,0,.145.002.215.005s.141.008.215.015v-1.32c-.04-.007-.082-.012-.125-.015-.044-.003-.085-.005-.125-.005-.287,0-.53.078-.73.235s-.37.365-.51.625h-.02v-.72h-1.32v5.38ZM88.746,32.386c0,.153-.027.282-.08.385-.054.103-.122.188-.205.255-.084.067-.175.115-.275.145s-.197.045-.29.045c-.187,0-.32-.073-.4-.22s-.12-.323-.12-.53c0-.24.06-.43.18-.57s.32-.24.6-.3c.086-.02.183-.052.29-.095.106-.043.206-.102.3-.175v1.06ZM87.466,30.286v-.15c0-.213.053-.383.16-.51.106-.127.266-.19.48-.19.233,0,.398.058.495.175.096.117.145.278.145.485,0,.18-.04.317-.12.41s-.224.167-.43.22l-.78.21c-.24.067-.445.143-.615.23s-.31.195-.42.325-.192.287-.245.47c-.054.183-.08.402-.08.655,0,.18.023.362.07.545.046.183.12.348.22.495s.233.267.4.36c.166.093.37.14.61.14.333,0,.605-.047.815-.14s.395-.28.555-.56h.02c.02.093.041.188.065.285.023.097.058.188.105.275h1.32c-.067-.16-.112-.31-.135-.45-.024-.14-.035-.337-.035-.59v-2.83c0-.24-.025-.462-.075-.665s-.145-.378-.285-.525-.339-.26-.595-.34c-.257-.08-.589-.12-.995-.12-.26,0-.505.028-.735.085s-.43.15-.6.28-.305.302-.405.515-.15.473-.15.78v.13h1.24ZM82.745,30.716v-.21c0-.127.011-.253.035-.38.023-.127.061-.242.115-.345.053-.103.125-.187.215-.25s.205-.095.345-.095.255.028.345.085.16.14.21.25.085.243.105.4.033.338.04.545h-1.41ZM85.475,31.536v-.31c0-.413-.027-.788-.08-1.125-.054-.337-.154-.623-.3-.86-.147-.237-.349-.42-.605-.55-.257-.13-.585-.195-.985-.195-.467,0-.84.077-1.12.23s-.495.36-.645.62-.25.557-.3.89-.075.68-.075,1.04c0,.333.015.672.045,1.015s.111.653.245.93c.133.277.34.502.62.675s.67.26,1.17.26c.66,0,1.143-.168,1.45-.505.306-.337.473-.818.5-1.445h-1.24c-.04.34-.114.593-.22.76-.107.167-.277.25-.51.25-.127,0-.234-.035-.32-.105-.087-.07-.157-.163-.21-.28-.054-.117-.092-.25-.115-.4-.024-.15-.035-.305-.035-.465v-.43h2.73ZM76.805,32.256v.19c0,.26.03.495.09.705s.165.39.315.54.352.265.605.345.577.12.97.12c.287,0,.553-.035.8-.105s.458-.175.635-.315.315-.317.415-.53.15-.46.15-.74c0-.407-.09-.728-.27-.965s-.487-.428-.92-.575l-.83-.28c-.233-.073-.392-.163-.475-.27s-.125-.227-.125-.36c0-.193.065-.338.195-.435s.282-.145.455-.145c.227,0,.385.065.475.195s.135.335.135.615h1.24v-.22c0-.487-.15-.863-.45-1.13s-.763-.4-1.39-.4c-.353,0-.655.043-.905.13s-.455.203-.615.35-.277.318-.35.515-.11.405-.11.625c0,.38.097.692.29.935s.48.432.86.565l.97.35c.133.053.25.125.35.215s.15.222.15.395c0,.213-.063.373-.19.48s-.297.16-.51.16c-.233,0-.412-.072-.535-.215s-.185-.332-.185-.565v-.18h-1.24ZM73.499,30.716v-.21c0-.127.012-.253.035-.38s.062-.242.115-.345.125-.187.215-.25.205-.095.345-.095.255.028.345.085.16.14.21.25.085.243.105.4.033.338.04.545h-1.41ZM76.229,31.536v-.31c0-.413-.027-.788-.08-1.125s-.153-.623-.3-.86-.348-.42-.605-.55-.585-.195-.985-.195c-.467,0-.84.077-1.12.23s-.495.36-.645.62-.25.557-.3.89-.075.68-.075,1.04c0,.333.015.672.045,1.015s.112.653.245.93.34.502.62.675.67.26,1.17.26c.66,0,1.143-.168,1.45-.505s.473-.818.5-1.445h-1.24c-.04.34-.113.593-.22.76s-.277.25-.51.25c-.127,0-.233-.035-.32-.105s-.157-.163-.21-.28-.092-.25-.115-.4-.035-.305-.035-.465v-.43h2.73ZM68.217,27.936h.68c.667,0,1,.33,1,.99,0,.387-.093.662-.28.825s-.453.245-.8.245h-.6v-2.06ZM66.777,34.016h1.44v-3.02h.761c.296,0,.507.08.632.24s.194.38.207.66l.04,1.37c.007.14.02.275.04.405.021.13.068.245.142.345h1.578v-.06c-.133-.073-.218-.21-.255-.41s-.058-.49-.065-.87-.025-.7-.055-.96-.085-.475-.165-.645-.193-.3-.34-.39-.343-.152-.59-.185v-.02c.407-.087.707-.282.9-.585s.29-.695.29-1.175c0-.62-.167-1.082-.5-1.385s-.8-.455-1.4-.455h-2.66v7.14Z" fill="#00549f"/>
      <path d="M54.243,68.032h5.228v-1.915h-2.885v-7.08h-2.343v8.995ZM53.499,65.008v-.693c0-.612-.057-1.129-.17-1.549s-.286-.758-.517-1.014-.516-.439-.856-.548-.737-.164-1.191-.164c-.512,0-.951.065-1.316.195-.366.131-.666.338-.901.624s-.407.655-.516,1.109c-.11.453-.164,1.007-.164,1.662,0,.647.048,1.197.145,1.651.096.453.258.823.485,1.108.226.286.524.494.894.624s.827.195,1.373.195c.941,0,1.617-.218,2.028-.655.412-.436.626-1.075.643-1.915h-2.041c0,.235-.015.429-.044.58s-.071.271-.126.359-.122.151-.202.189c-.079.038-.17.056-.27.056-.16,0-.303-.06-.429-.182s-.189-.368-.189-.737v-.895h3.364ZM51.383,63.774h-1.248v-.303c0-.361.044-.625.133-.793.088-.168.249-.252.485-.252.243,0,.409.084.497.252s.133.432.133.793v.303ZM43.101,68.032h3.023l1.94-8.995h-2.494l-.945,6.778h-.025l-.945-6.778h-2.494l1.94,8.995ZM34.524,68.032h2.494l.239-1.575h1.865l.239,1.575h2.495l-2.193-8.995h-2.947l-2.192,8.995ZM38.845,64.693h-1.311l.643-3.817h.025l.643,3.817ZM27.771,68.032h2.344v-3.603h.617c.143,0,.262.019.359.057.096.037.176.105.239.201.063.097.107.229.132.397.026.168.038.378.038.63v.605c0,.092.002.212.007.359.004.147.012.3.025.459.012.16.033.32.063.479.029.16.073.298.132.416h2.494v-.126c-.075-.042-.13-.086-.163-.132-.034-.046-.068-.095-.101-.145-.025-.051-.046-.122-.063-.214-.017-.093-.03-.196-.038-.309s-.013-.233-.013-.359v-1.134c0-.605-.105-1.079-.314-1.423-.21-.345-.597-.542-1.159-.593v-.025c.537-.084.927-.31,1.171-.68s.365-.857.365-1.461c0-.345-.044-.664-.132-.958s-.231-.548-.428-.762c-.198-.214-.454-.38-.769-.498-.315-.117-.695-.176-1.14-.176h-3.666v8.995ZM30.115,60.725h.453c.353,0,.607.08.762.239.156.16.233.429.233.807,0,.319-.08.577-.239.774-.16.198-.408.297-.743.297h-.466v-2.117ZM21.167,68.032h2.268v-4.498c0-.285.042-.491.126-.617s.227-.189.428-.189.344.063.428.189.126.332.126.617v4.498h2.268v-5.14c0-.361-.046-.661-.139-.901-.092-.239-.218-.43-.377-.573-.16-.143-.347-.241-.561-.296s-.447-.082-.699-.082c-.807,0-1.357.336-1.651,1.008h-.025v-.832h-2.192v6.816ZM14.178,59.037v5.896c0,.63.067,1.155.202,1.575.134.42.329.755.585,1.007s.574.431.951.536c.378.105.815.157,1.311.157.487,0,.921-.052,1.304-.157.382-.105.701-.284.957-.536s.451-.587.586-1.007c.134-.42.201-.945.201-1.575v-5.896h-2.343v6.488c0,.437-.063.729-.189.875-.126.147-.298.221-.516.221s-.391-.074-.517-.221c-.126-.146-.189-.438-.189-.875v-6.488h-2.343Z" fill="#00549f"/>
      <path d="M22.348,31.528c.232-.454.485-.894.757-1.322.097.035.191.072.29.1.049.014.099.017.148.028.815.195,1.69.169,2.497-.128l4.527-1.669.092-.034c1.279-.472,2.688-.466,3.94-.022-.025-.099-.069-.192-.086-.294-.131-.87-.027-1.926-.023-1.971.183-1.282.97-2.407,2.164-3.119.286-.171.59-.306.901-.421-.237-.011-.47-.036-.71-.036-5.781,0-10.845,3.02-13.736,7.559-.179-.061-.36-.115-.534-.199-.969-.473-1.706-1.245-1.999-2.138-.01-.025-1.075-2.55,1.442-5.659l-1.166-.943c-3.085,3.811-1.709,7.068-1.676,7.134.394,1.22,1.393,2.297,2.743,2.954.14.068.285.123.429.18" fill="#f6a800"/>
      <path d="M26.547,46.1l4.62,1.704c1.188.437,2.53.33,3.594-.287.817-.474,1.341-1.177,1.476-1.981.002-.009.126-.76.014-1.558-.116-.809-.629-1.524-1.443-2.009-1.07-.638-2.426-.752-3.63-.31l-4.619,1.704c-1.599.59-3.419.441-4.866-.397-.274-.159-.519-.343-.747-.538.291,1.327.749,2.589,1.342,3.773,1.328-.566,2.87-.613,4.259-.101" fill="#f6a800"/>
      <path d="M46.202,29.91l-4.62,1.703c-1.27.469-2.674.464-3.924.027.031.125.06.251.078.378.12,1.01-.011,1.958-.016,1.997-.018.11-.064.209-.091.315,1.253-.445,2.663-.452,3.942.021l4.619,1.703c1.187.437,2.532.331,3.595-.287.816-.473,1.34-1.176,1.476-1.98-.001,0,.102-.89.012-1.564-.115-.803-.628-1.518-1.443-2.004-1.068-.637-2.424-.751-3.628-.309" fill="#f6a800"/>
      <path d="M34.807,53.727c-1.069-.638-2.426-.751-3.629-.31l-.988.365c1.817.816,3.811,1.299,5.908,1.394-.228-.575-.67-1.079-1.291-1.449" fill="#f6a800"/>
      <path d="M34.548,51.969c-.008-.041-.028-.077-.035-.118-.115-.735-.117-1.408-.018-2.081.026-.186.071-.369.124-.549-1.261.453-2.684.464-3.97-.01l-4.62-1.704c-.979-.36-2.05-.332-2.993.025,1.351,2.164,3.193,3.982,5.374,5.307l2.25-.829c1.261-.465,2.649-.467,3.888-.041" fill="#f6a800"/>
      <path d="M34.807,30.22c-1.069-.638-2.426-.752-3.629-.31l-4.62,1.704c-1.277.472-2.693.465-3.949.018-.043-.015-.085-.032-.128-.047-.045-.018-.091-.032-.136-.051-.593,1.162-1.05,2.403-1.352,3.705.199-.166.408-.322.638-.459,1.455-.869,3.292-1.029,4.916-.429l4.62,1.703c1.187.437,2.53.331,3.594-.286.817-.474,1.341-1.177,1.476-1.981,0,0,.105-.787.012-1.573-.114-.794-.627-1.509-1.442-1.994" fill="#f6a800"/>
      <path d="M45.671,49.367l-4.62-1.704c-1.202-.442-2.559-.326-3.629.31-.814.486-1.327,1.201-1.444,2.012-.077.526-.075,1.049.004,1.556.146.865.669,1.568,1.486,2.041,1.064.618,2.407.724,3.595.287l4.62-1.703c.314-.116.638-.195.964-.254.935-.707,1.794-1.506,2.557-2.395-1.147.31-2.395.271-3.533-.15" fill="#f6a800"/>
      <path d="M20.957,39.619h.001l.004.024c.005.028.011.049.016.075.143.79.661,1.483,1.467,1.951,1.065.616,2.408.723,3.595.287l4.62-1.704c1.261-.464,2.649-.466,3.888-.041-.008-.04-.028-.077-.035-.118-.216-.71-.054-1.978-.019-2.224.018-.128.047-.255.078-.38-1.249.437-2.654.441-3.923-.027l-4.621-1.704c-1.202-.442-2.559-.327-3.629.31-.814.485-1.327,1.2-1.443,2.012-.078.589-.079,1.108,0,1.535,0,.002.001.003.001.004" fill="#f6a800"/>
      <path d="M35.979,26.398c-.021.221-.07.987.004,1.485.146.86.67,1.563,1.486,2.037,1.064.617,2.407.725,3.595.287l4.62-1.704c1.143-.422,2.391-.46,3.538-.147-.722-.843-1.529-1.607-2.406-2.288-.388-.058-.772-.151-1.144-.288l-4.62-1.704c-1.202-.443-2.559-.327-3.629.31-.815.486-1.327,1.2-1.444,2.012" fill="#f6a800"/>
      <path d="M51.274,44.137c-.117-.812-.629-1.526-1.444-2.012-1.069-.637-2.425-.752-3.629-.309l-4.62,1.703c-1.258.463-2.648.465-3.889.04.014.07.033.139.044.209.146,1.04-.013,1.981-.02,2.021-.027.161-.09.31-.136.465,1.265-.463,2.694-.477,3.99.002l4.62,1.704c1.187.437,2.53.33,3.594-.287.817-.473,1.341-1.177,1.476-1.981l.029-.169c.022-.317.031-1.026.008-1.267l-.023-.119Z" fill="#f6a800"/>
      <path d="M52.551,34.673c-.341.985-1.024,1.818-2.014,2.392-1.446.839-3.265.987-4.866.396l-4.619-1.703c-1.203-.442-2.561-.328-3.63.309-.814.486-1.327,1.201-1.444,2.012-.064.461-.115,1.29-.02,1.599l.034.165c.136.805.66,1.508,1.477,1.981,1.063.617,2.406.725,3.594.287l4.62-1.703c1.623-.6,3.461-.439,4.915.428.941.561,1.624,1.38,1.961,2.313.362-1.349.573-2.759.573-4.222,0-1.475-.214-2.896-.581-4.254" fill="#f6a800"/>
      <path d="M51.289,45.523l-.029.169c-.135.804-.659,1.508-1.476,1.981-1.064.617-2.407.724-3.594.287l-4.62-1.704c-1.296-.479-2.725-.465-3.99-.002.046-.155.109-.304.136-.465.007-.039.166-.981.02-2.02-.01-.071-.03-.14-.044-.21,1.241.425,2.631.424,3.889-.04l4.62-1.703c1.205-.442,2.56-.328,3.629.309.815.486,1.327,1.201,1.444,2.012l.023.119c.024.242.014.951-.008,1.267M30.659,40.253l-4.619,1.703c-1.187.437-2.53.33-3.595-.287-.807-.468-1.324-1.16-1.467-1.951-.005-.026-.011-.047-.016-.075l-.004-.024h-.001s-.001-.002-.001-.003c-.079-.427-.079-.947,0-1.536.117-.812.63-1.526,1.444-2.012,1.07-.637,2.427-.752,3.629-.309l4.62,1.703c1.27.469,2.675.465,3.924.027-.031.126-.06.252-.078.38-.035.247-.197,1.514.019,2.224.007.041.026.078.035.119-1.239-.426-2.628-.423-3.889.041M41.581,31.614l4.62-1.703c1.205-.443,2.56-.328,3.629.309.815.486,1.327,1.2,1.443,2.004.089.674-.014,1.564-.013,1.564-.135.803-.659,1.507-1.476,1.98-1.063.617-2.407.723-3.594.287l-4.62-1.703c-1.279-.473-2.689-.466-3.942-.021.027-.106.073-.205.092-.315.005-.039.136-.987.016-1.997-.019-.128-.047-.253-.078-.378,1.249.437,2.653.441,3.923-.027M50.598,40.837c-1.454-.868-3.292-1.028-4.915-.428l-4.62,1.703c-1.188.438-2.531.33-3.594-.287-.817-.473-1.341-1.176-1.476-1.981l-.035-.165c-.095-.309-.044-1.138.02-1.599.117-.811.63-1.526,1.444-2.012,1.069-.637,2.427-.752,3.63-.309l4.619,1.703c1.601.591,3.42.442,4.866-.396.99-.574,1.673-1.407,2.014-2.392-.638-2.362-1.785-4.511-3.33-6.317-1.147-.314-2.395-.276-3.538.147l-4.62,1.703c-1.188.438-2.531.33-3.594-.287-.817-.474-1.341-1.177-1.486-2.037-.075-.498-.026-1.264-.005-1.485.117-.811.63-1.526,1.444-2.012,1.071-.637,2.427-.753,3.63-.31l4.619,1.704c.372.137.756.23,1.144.288-2.581-2.004-5.776-3.241-9.26-3.392-.311.116-.615.251-.901.422-1.194.712-1.981,1.837-2.164,3.119-.004.044-.108,1.101.023,1.971.017.102.061.195.086.294-1.252-.444-2.661-.45-3.94.022l-.092.034-4.527,1.669c-.807.297-1.682.323-2.497.128-.049-.012-.099-.015-.148-.028-.099-.028-.193-.065-.29-.1-.272.428-.525.868-.757,1.322-.001.002-.002.004-.003.005.045.019.091.033.136.051.043.016.085.032.128.047,1.256.447,2.672.455,3.949-.018l4.62-1.703c1.203-.443,2.56-.329,3.629.309.815.486,1.328,1.2,1.442,1.994.093.786-.012,1.573-.012,1.573-.135.804-.66,1.508-1.476,1.981-1.064.617-2.407.723-3.594.287l-4.62-1.703c-1.624-.6-3.461-.441-4.916.428-.23.137-.439.293-.638.459-.275,1.187-.435,2.418-.435,3.688,0,.254.026.502.038.753.012.267.015.536.04.8.063.663.17,1.312.309,1.949.229.195.473.379.747.537,1.448.839,3.268.988,4.866.397l4.62-1.703c1.203-.443,2.56-.328,3.629.309.815.486,1.328,1.201,1.444,2.01.112.797-.012,1.548-.014,1.558-.135.803-.659,1.507-1.476,1.98-1.064.617-2.407.724-3.594.287l-4.62-1.703c-1.389-.513-2.931-.465-4.259.1.229.457.478.901.748,1.332.943-.358,2.014-.386,2.992-.025l4.62,1.704c1.286.474,2.71.463,3.971.009-.054.18-.098.363-.125.55-.098.672-.096,1.346.019,2.08.007.041.026.078.034.118-1.238-.425-2.627-.424-3.888.041l-2.25.83c.573.348,1.164.666,1.78.942l.989-.364c1.203-.442,2.56-.329,3.629.309.621.37,1.063.874,1.291,1.449.25.012.495.038.747.038.169,0,.333-.02.501-.025.106-.003.211-.011.317-.016,3.367-.168,6.459-1.352,8.984-3.261-.326.06-.65.138-.964.254l-4.62,1.704c-1.188.437-2.531.33-3.594-.287-.817-.474-1.341-1.177-1.487-2.041-.079-.508-.08-1.031-.004-1.557.117-.811.63-1.526,1.444-2.012,1.071-.636,2.427-.752,3.63-.309l4.619,1.703c1.138.421,2.386.46,3.533.15,1.56-1.819,2.716-3.985,3.355-6.367-.337-.933-1.02-1.752-1.961-2.313" fill="#fff"/>
    </g>
  </g>
</svg>